PathFileType	4	(X/Y/Z)	OpenSim_Sub06_CSBaseline_Accel.trc
DataRate	CameraRate	NumFrames	NumMarkers	Units	OrigDataRate	OrigDataStartFrame	OrigNumFrames
100	100	34	8	m	100	2124	8492
Frame#	Time	torso_imu_offset_imu	pelvis_imu_offset_imu	tibia_r_imu_offset_imu	femur_r_imu_offset_imu	tibia_l_imu_offset_imu	femur_l_imu_offset_imu	toes_r_imu_offset_imu	toes_l_imu_offset_imu
				X1	Y1	Z1	X2	Y2	Z2	X3	Y3	Z3	X4	Y4	Z4	X5	Y5	Z5	X6	Y6	Z6	X7	Y7	Z7	X8		Y8	Z8	

2124	21.23000000	9.54360958	-0.79096610	6.18096933	10.41353669	-3.27080166	5.18362776	9.90290463	8.50099718	-1.76494730	10.88347728	-1.45513158	-4.00312791	8.34505712	-8.82372187	0.84184591	13.37126308	-1.26045399	-0.03552024	4.93373137	-2.38209460	8.42186660	10.54560217	2.71585292	13.83186808
2125	21.24000000	9.62736309	-0.61264471	6.41341708	10.66557563	-1.99334727	5.36503430	8.36812683	8.80474267	0.99115501	12.19340566	-3.19179424	-4.44330478	5.66660870	-9.61785151	-0.15448503	13.20561458	-1.96442955	0.27449041	4.42712068	-2.69068680	8.93869929	15.87448914	2.46224476	12.47238860
2126	21.25000000	9.58225733	-0.53307766	6.81330157	10.11808358	-0.35038191	5.92006448	10.45403764	7.07804832	0.96743167	12.19803494	-5.82082028	-4.32123630	4.14805718	-9.60826013	-0.44134796	12.59772186	-2.49600137	0.30670692	4.15100140	-3.98797341	8.57317842	8.45610754	2.26154741	10.09463064
2127	21.26000000	9.42301770	-0.42665458	7.13050253	9.72894110	0.90354758	6.25303697	11.84950348	5.20507260	-0.26292055	9.93946538	-6.17795270	-3.84257263	3.84968823	-9.93969581	0.38130950	11.69855553	-2.50245605	0.00300401	3.90799061	-3.87551205	8.72592882	7.25296866	2.36270865	21.76668579
2128	21.27000000	9.16477846	-0.45183186	7.07407195	9.52756391	1.70697478	6.40905293	11.07910761	3.95477217	-0.29327649	7.55720151	-3.93958952	-2.26766613	3.19798883	-10.66998908	0.85872672	11.48395885	-1.88409118	0.33429049	4.30808947	-2.86799304	8.96792003	30.01393307	4.36294882	28.44108704
2129	21.28000000	8.73755056	-0.57575891	6.73391236	9.42085895	2.32120786	6.59536906	10.48223970	2.29847868	0.62795072	6.75060257	-2.55338499	-0.27937283	3.27367885	-10.57376130	1.23245158	11.42298418	-0.59764099	0.93841814	4.72895691	-1.79741458	8.93716714	3.66519386	11.74258217	18.09388363
2130	21.29000000	8.72266223	-0.69372942	6.46384905	9.30655113	2.07297788	6.31791560	10.54605965	0.00940081	1.49219615	7.13453045	-2.22319136	0.65895426	2.53389043	-8.44615233	1.80331075	11.02200909	0.68382916	1.12831893	4.68347343	-1.77279584	8.84597742	-10.60718847	12.01607776	10.11432950
2131	21.30000000	8.82457297	-0.67857477	6.24659807	8.98926724	1.54020180	5.63528229	10.43518196	-1.86477796	1.61689453	8.26615763	-2.17663751	0.46141083	2.44700844	-5.86589041	3.27596754	10.90769279	1.44221463	1.45479991	5.39492198	-2.16791019	8.53599913	-4.77094522	5.94328802	8.48244503
2132	21.31000000	8.62400542	-0.65094255	6.32968238	8.37283160	1.43928655	4.93281500	9.55051228	-2.49779204	1.14762314	9.52574186	-2.22825954	-0.29703634	2.33921167	-3.69955243	4.86430330	10.25255896	1.87954365	1.55822230	4.85071817	-2.72017042	8.35161200	-0.46565521	1.13285905	8.91156256
2133	21.32000000	8.36847195	-0.75789344	6.18159912	7.64850901	1.56583401	4.32124835	8.93811040	-1.46743759	0.80909760	10.09239115	-1.45672086	-0.92055054	1.82940374	-2.30992698	5.78682602	9.51326623	1.67633215	1.47553603	4.71837210	-2.88495479	8.37949300	1.38198473	1.01330678	10.66156976
2134	21.33000000	8.00815614	-0.83948931	5.97398645	7.22708851	1.81497768	4.16593893	9.21271980	0.36919472	0.71534236	9.39708384	-0.27751363	-1.04290146	1.48211662	-2.57313858	5.93105801	9.60626781	1.37890956	1.41670261	4.92686376	-2.39718824	8.53252011	2.49867067	2.29066528	11.78950763
2135	21.34000000	7.76288670	-0.81703823	5.87818084	7.08615417	2.00484526	4.27822613	9.75076402	1.83079725	0.77096059	8.57436422	0.80572044	-0.65436544	1.64101328	-3.36576204	5.57447824	9.02052961	1.46541883	1.64373297	4.91178029	-2.04273524	8.39709448	2.56197205	2.59269417	11.61246273
2136	21.35000000	7.65334802	-0.79117875	5.85982131	7.23417948	2.21818346	4.41894474	9.72103118	3.35327642	0.72122371	8.37706114	1.66162187	-0.25270097	2.25540113	-3.65672039	5.28860505	8.86429419	1.51906248	1.86331737	5.06383728	-1.79969569	8.46646259	2.05426358	1.26627370	10.44418916
2137	21.36000000	7.77922471	-0.80099422	6.00670569	7.33956118	2.16579060	4.57312985	9.26956571	4.82367095	0.93275310	8.55896939	1.59689799	0.12396326	2.69858272	-3.77033649	4.96076436	8.86492368	1.61894134	1.87425883	5.17644884	-1.79029742	8.42075335	1.04484336	-0.67462165	9.50225779
2138	21.37000000	7.82421066	-0.87633131	6.18324137	7.48240403	2.17415107	4.64522776	9.03195202	5.57679884	0.94412425	8.91464012	0.84874538	0.11789007	3.19427120	-3.54673935	4.48102705	8.56564389	1.96163856	1.91688865	4.95148141	-1.99232931	8.31743321	1.18140074	-2.86828204	8.85855312
2139	21.38000000	7.73886851	-0.88504741	6.39457568	7.48216809	1.97705086	4.66598823	9.16421967	5.44874000	0.95777624	9.31010143	0.09648632	-0.38124030	3.63237359	-3.37960902	4.08105085	7.87485728	2.61997900	2.05194214	4.68118009	-2.24706999	8.43979372	1.49197337	-3.18458063	8.88823397
2140	21.39000000	7.68416507	-0.90901169	6.48877142	7.65915399	1.71529021	4.58195793	9.29265999	4.59373370	1.12493266	9.44518187	-0.46720885	-0.99553647	3.75878172	-3.46699459	3.55647150	7.70986496	2.70469203	2.16207521	4.96246740	-2.17002779	8.23104456	2.19157870	-2.52032219	9.55987273
2141	21.40000000	7.54254485	-0.77684951	6.52955266	7.84327632	1.37226841	4.58358522	9.40157721	3.20203008	1.07328523	10.11872475	-0.58044913	-1.41311771	4.53268349	-3.26598853	3.28309133	8.05093458	2.69650850	2.07936946	4.64255653	-2.32156198	8.32436753	3.17033910	-1.92357163	10.48621180
2142	21.41000000	7.55654928	-0.62398961	6.62602529	8.16398739	1.30689943	4.73623585	9.78863352	1.81314083	0.86348636	9.07886122	-1.38166234	-1.19328667	4.84764128	-3.93591065	2.82326229	7.81956569	2.85199112	2.18218844	4.56733057	-2.45468924	8.36064548	4.49353978	-1.46985781	11.34022079
2143	21.42000000	7.73284713	-0.58152508	6.73970824	8.44835802	1.22157607	4.73795565	10.12192248	0.77646574	0.67144303	8.95043022	-1.69136276	-0.88642330	4.66055366	-5.82009497	1.48701151	7.27557521	2.82828193	1.87344130	4.51314544	-2.49105087	8.41036213	5.14535384	-1.40198290	11.60433928
2144	21.43000000	7.89329440	-0.62852607	6.70898845	8.51708191	1.35549885	4.66268463	10.15575409	-0.16406515	0.72293714	8.69357417	-2.29077413	-0.81666725	5.42740139	-7.91867923	0.27989346	7.10658298	2.66106176	1.35275502	4.25662206	-2.66556097	8.41027949	5.39900687	-1.25872305	11.83812713
2145	21.44000000	8.01938758	-0.70220301	6.79812021	8.40941696	1.52745377	4.57039344	10.11418231	-0.82109556	1.07033897	8.75504972	-2.36648134	-0.82045720	6.67625958	-9.06814989	0.47745392	7.11271814	2.41139454	0.63564118	4.71819275	-2.33627605	8.44089015	6.35046970	-1.20477069	12.49961099
2146	21.45000000	8.32587851	-0.74290190	6.87318309	8.41362940	1.77336789	4.40457613	10.20009834	-1.37655654	1.06153452	8.52518234	-2.71731077	-0.86239681	7.11432881	-8.89034666	1.74273518	7.21380687	2.06013845	-0.03101852	4.45526312	-2.42357105	8.40558560	8.33287366	-0.79134178	13.60044374
2147	21.46000000	8.56848231	-0.79938333	7.18303331	8.53309311	2.05494087	4.24753751	10.25145233	-1.38974205	1.24948330	8.83270164	-2.79833162	-0.97967153	7.02659465	-7.45006617	2.92071299	8.14911579	1.44166150	-0.94421779	4.32477382	-2.59553951	8.55136275	10.80398640	0.34249878	14.24652853
2148	21.47000000	8.72824979	-0.82387880	7.30208632	8.60066022	2.15834296	4.11619028	10.21714703	-0.59085518	1.23966995	9.06959451	-2.71761226	-1.24937357	6.83931302	-5.02024701	3.65807514	7.82879525	1.26819385	-1.04641628	4.53597323	-2.48286796	8.72876674	12.27818091	1.72249023	13.53128504
2149	21.48000000	8.66813939	-0.85794764	7.25540640	8.66239473	2.21278782	4.08898472	10.36961042	0.30308291	1.07144634	9.41923463	-2.82689687	-1.52820667	6.66825953	-2.29262853	4.00419719	8.11193747	1.27856632	-0.72014037	4.63039374	-2.51820119	8.57834062	12.85819186	2.04868957	11.74317297
2150	21.49000000	8.64292682	-0.88135305	7.12144739	8.57199168	2.22011801	3.95719162	10.29290870	1.15223872	1.03336092	9.61748143	-2.74596197	-1.64587071	7.25324660	-0.54449484	3.93457933	8.78276509	1.07301508	-0.39296545	4.79401297	-2.27443182	8.73154876	13.61370530	1.40486127	9.84057613
2151	21.50000000	8.51359034	-0.97009296	6.83657513	8.51979712	2.32101812	3.82238500	10.30280755	1.69215870	0.87112571	9.61752775	-2.64438921	-1.45916185	9.15787136	-0.11137561	3.43562266	9.21744021	1.38391085	-0.37211577	4.76880441	-2.39962587	8.76059673	14.72659640	0.71413179	8.22395554
2152	21.51000000	8.20660173	-1.10795706	6.38991511	8.36691874	2.30471543	3.62776965	10.30313396	2.14951942	0.77004051	9.40492768	-2.59125013	-1.06515033	11.79397687	-1.11707588	2.93436739	9.15475288	1.96611542	0.13485532	4.83716636	-2.34527594	8.57415398	15.85119183	-0.13363366	6.82846589
2153	21.52000000	8.61269328	-1.14286099	6.73485895	8.19666948	2.37432831	3.56645040	10.22309456	2.24623640	0.76455566	9.17200941	-2.31175916	-0.55190823	13.93453255	-3.31690559	2.56751140	8.91148255	2.81028990	1.17003951	4.51152094	-2.39126365	8.68897484	17.03389782	-1.13318153	5.52084444
2154	21.53000000	8.86559177	-1.17115921	6.77731587	8.15967495	2.29964591	3.53830567	10.21907371	1.90350835	0.75966719	9.22587882	-2.06080559	-0.25207619	14.03785460	-5.13786076	1.93154116	8.42171026	3.59118733	1.33762900	4.90835949	-2.34176394	8.59029512	18.52035871	-2.11172619	4.87848293
2155	21.54000000	8.97261509	-1.16800000	6.60103723	7.98120896	2.25274225	3.72945624	10.23907429	1.31421997	0.92397875	9.26651091	-2.05598209	-0.05571143	11.79155778	-5.63852431	1.44269969	8.19765808	4.67562910	1.91179613	4.64476082	-2.43310541	8.65802903	20.51785498	-3.62603172	4.59481246
2156	21.55000000	9.32136447	-1.06806487	6.74387408	8.14740496	2.33334851	3.84590799	10.50082057	0.59903944	1.13349981	9.26974364	-2.00923406	-0.27912470	8.95996091	-5.16481426	1.33771642	8.11501693	6.46669562	1.68383437	4.41346796	-2.59286725	8.77828517	20.39472744	-5.18922359	3.68894362
2157	21.56000000	9.43415191	-1.10544445	6.75226899	8.50495828	2.29966263	3.91979266	10.79468501	-0.13579503	1.39447023	9.27072944	-2.07577818	-0.36750761	7.69058921	-4.79492387	1.29351007	7.98157272	7.90067220	1.48294289	4.30070483	-2.40912338	9.03409897	19.37833100	-6.57772604	2.13748733
